<?xml version="1.0" encoding="UTF-8" standalone="no"?>
<!DOCTYPE svg PUBLIC "-//W3C//DTD SVG 1.1//EN" "http://www.w3.org/Graphics/SVG/1.1/DTD/svg11.dtd">
<svg version="1.1" xmlns="http://www.w3.org/2000/svg" xmlns:xlink="http://www.w3.org/1999/xlink" preserveAspectRatio="xMidYMid meet" viewBox="0 0 640 640" width="640" height="640"><defs><path d="" id="g7CNhUneO"></path><path d="M496.84 201.51C496.84 201.51 508.09 204.85 512.68 213.18C517.26 221.51 552.67 251.51 552.67 251.51C555.26 250.22 575.92 239.89 578.51 238.59C578.51 238.59 569.52 226.6 541.1 218.22C541.1 218.22 524.34 200.26 518.51 196.93C512.68 193.6 504.34 186.51 504.34 186.51C502.84 189.51 493.51 192.76 496.84 201.51Z" id="a2OJPMy7Mi"></path><path d="M496.84 201.51C496.84 201.51 508.09 204.85 512.68 213.18C517.26 221.51 552.67 251.51 552.67 251.51C555.26 250.22 575.92 239.89 578.51 238.59C578.51 238.59 569.52 226.6 541.1 218.22C541.1 218.22 524.34 200.26 518.51 196.93C512.68 193.6 504.34 186.51 504.34 186.51C502.84 189.51 493.51 192.76 496.84 201.51Z" id="am9tAAped"></path><path d="M68.29 585.36C61.64 586.74 54.69 585.13 47.85 585.07C41.01 585 33.02 587.41 31.35 592.96C29.09 600.42 39.51 606.05 48.43 607.91C83.05 615.12 119.7 605.76 155.08 609.58C169.99 611.19 184.49 615.12 199.48 616.06C233.79 618.21 267.32 604.55 301.68 606.09C318.89 606.86 335.63 611.44 352.84 612.17C394.03 613.93 434.67 593.68 475 600.94C486.39 602.99 497.08 607.16 508.36 609.58C536.88 615.7 566.91 610.25 595.63 604.79C601.33 603.71 608.21 601.6 608.91 596.74C609.68 591.38 602.33 588.02 596.21 586.3C529.31 567.57 457.67 557.64 387.89 566.3C372.01 568.27 356.17 571.2 340.12 571.01C304.59 570.58 271.94 555.06 237.06 549.39C170.96 538.63 104.88 563.72 44.21 588.16" id="bFU2glzZR"></path><path d="M206.5 426.39L189.56 426.39C189.56 512.32 189.56 560.07 189.56 569.61C189.56 569.61 298.9 605.03 405.17 569.61C405.17 560.07 405.17 512.32 405.17 426.39L206.5 426.39Z" id="a2bSXDmMQu"></path><path d="M402.09 427.16C402.09 436.09 354.51 443.33 295.82 443.33C237.14 443.33 189.56 436.09 189.56 427.16C189.56 418.23 237.14 410.99 295.82 410.99C354.51 410.99 402.09 418.23 402.09 427.16Z" id="erZr7Wod"></path><path d="M402.09 427.16C402.09 436.09 354.51 443.33 295.82 443.33C237.14 443.33 189.56 436.09 189.56 427.16C189.56 418.23 237.14 410.99 295.82 410.99C354.51 410.99 402.09 418.23 402.09 427.16Z" id="b26xybaVaF"></path><path d="M300.72 415.73C300.72 415.73 252.37 316.44 279.17 217.35C305.98 118.25 397.8 56.88 397.8 56.88C397.8 56.88 446.16 156.17 419.35 255.27C392.54 354.36 324.45 383.64 300.72 415.73Z" id="a2ek5f5DCF"></path><path d="M294.11 415.73C294.11 415.73 342.46 316.44 315.66 217.35C288.85 118.25 197.03 56.88 197.03 56.88C197.03 56.88 148.67 156.17 175.48 255.27C202.29 354.36 270.38 383.64 294.11 415.73Z" id="a2Q3OVCI8Z"></path><path d="M297.41 415.65C297.41 415.65 187.14 409.63 113.58 338.02C40.02 266.42 31.04 156.34 31.04 156.34C31.04 156.34 141.31 162.36 214.87 233.97C288.43 305.58 280.91 379.32 297.41 415.65Z" id="bqn7Lrtt4"></path><path d="M297.41 415.65C297.41 415.65 407.69 409.63 481.25 338.02C554.81 266.42 563.79 156.34 563.79 156.34C563.79 156.34 453.52 162.36 379.96 233.97C306.4 305.58 313.92 379.32 297.41 415.65Z" id="a1ItNzFJqJ"></path><path d="M297.36 22.89C278.65 22.89 263.48 38.06 263.48 56.77C263.48 75.49 278.65 90.65 297.36 90.65C316.08 90.65 331.25 75.49 331.25 56.77C331.25 38.06 316.08 22.89 297.36 22.89Z" id="j5R09Ur8t2"></path><path d="M105.22 310.73C105.22 310.73 109.67 301.9 107.27 293.19C104.87 284.47 96.52 279.17 96.52 279.17C96.52 279.17 92.07 288 94.47 296.71C96.88 305.43 103.07 307.93 105.22 310.73Z" id="eGqotKjP0"></path><path d="M141.12 362.85C141.12 362.85 149.57 357.72 152.16 349.06C154.75 340.39 150.48 331.47 150.48 331.47C150.48 331.47 142.03 336.6 139.44 345.26C136.85 353.93 140.78 359.33 141.12 362.85Z" id="a1iZyiRipQ"></path><path d="M457.02 417.32C457.02 417.32 466.89 416.76 473.24 410.32C479.58 403.88 480 394 480 394C480 394 470.13 394.56 463.78 401C457.43 407.44 458.37 414.06 457.02 417.32Z" id="cS5oRtkFE"></path><path d="M571.84 541.92C571.84 541.92 573.09 560.26 575.17 562.34C575.17 562.34 556.42 565.67 556.42 565.67C556.62 564.09 557.59 556.17 559.34 541.92C566.01 541.92 570.17 541.92 571.84 541.92Z" id="b5wDzixBM"></path><path d="M571.84 541.92C571.84 541.92 573.09 560.26 575.17 562.34C575.17 562.34 556.42 565.67 556.42 565.67C556.62 564.09 557.59 556.17 559.34 541.92C566.01 541.92 570.17 541.92 571.84 541.92Z" id="c2qyQPLM5d"></path><path d="M563.09 561.51C563.09 561.51 556.01 560.26 553.09 550.26C553.09 550.26 544.34 565.26 538.51 566.09C532.67 566.92 521.43 567.76 528.92 577.76C536.42 587.76 580.59 583.17 580.59 583.17C580.59 583.17 581.84 559.01 576.42 556.09C573.76 557.17 573.51 556.09 563.09 561.51Z" id="b2L81yUEMf"></path><path d="M563.09 561.51C563.09 561.51 556.01 560.26 553.09 550.26C553.09 550.26 544.34 565.26 538.51 566.09C532.67 566.92 521.43 567.76 528.92 577.76C536.42 587.76 580.59 583.17 580.59 583.17C580.59 583.17 581.84 559.01 576.42 556.09C573.76 557.17 573.51 556.09 563.09 561.51Z" id="cBBI6jKSp"></path><path d="M567.26 578.17L548.09 572.76L549.18 564.9L549.45 563C549.88 559.86 550.13 558.11 550.17 557.76C550.17 557.76 566.42 553.59 566.42 555.67C566.64 557.39 567 559.09 567.49 560.75C568.16 563.31 569 566.23 569.56 568.15C569.92 569.42 570.17 570.26 570.17 570.26C569.79 571.31 568.81 573.95 567.26 578.17Z" id="a2B9JyoxbN"></path><path d="M559.68 473.19C560.5 474.69 561.5 476.09 562.67 477.34C571.84 487.34 574.34 509.84 574.34 509.84C574.34 512.26 574.34 524.34 574.34 546.09L568.09 546.57L558.09 547.34C549.09 510.34 544.09 489.79 543.09 485.67C543.09 485.67 534.34 440.68 538.51 432.76C538.51 432.76 546.42 375.26 546.42 375.26C546.66 375.02 547.81 373.83 549.88 371.68L558.09 363.18C572.34 363.18 580.26 363.18 581.84 363.18C583.74 364.54 585.32 366.3 586.46 368.34C590.45 374.94 594.03 388.67 583.09 414.01C566.01 453.59 561.01 459.84 561.01 459.84C560.51 460.37 560.08 460.96 559.72 461.59C558.4 463.81 556.92 467.98 559.68 473.19Z" id="cciWKqaPA"></path><path d="M559.68 473.19C560.5 474.69 561.5 476.09 562.67 477.34C571.84 487.34 574.34 509.84 574.34 509.84C574.34 512.26 574.34 524.34 574.34 546.09L568.09 546.57L558.09 547.34C549.09 510.34 544.09 489.79 543.09 485.67C543.09 485.67 534.34 440.68 538.51 432.76C538.51 432.76 546.42 375.26 546.42 375.26C546.66 375.02 547.81 373.83 549.88 371.68L558.09 363.18C572.34 363.18 580.26 363.18 581.84 363.18C583.74 364.54 585.32 366.3 586.46 368.34C590.45 374.94 594.03 388.67 583.09 414.01C566.01 453.59 561.01 459.84 561.01 459.84C560.51 460.37 560.08 460.96 559.72 461.59C558.4 463.81 556.92 467.98 559.68 473.19Z" id="a3J6tZ0r"></path><path d="M549.45 563C549.88 559.86 550.13 558.11 550.17 557.76C550.17 557.76 566.42 553.59 566.42 555.67C566.64 557.39 567 559.09 567.49 560.75C565.09 561.05 559.07 561.8 549.45 563Z" id="a23OmAi1y4"></path><path d="M559.72 461.59C559.75 466.25 559.75 470.3 559.68 473.19C559.7 474.72 559.59 476.25 559.34 477.76C558.09 481.51 560.59 489.84 560.59 489.84C571.01 517.34 568.09 541.51 568.09 541.51C568.09 542.73 568.09 548.84 568.09 559.84C556.09 561.34 549.42 562.17 548.09 562.34C548.09 562.34 551.42 559.84 542.26 535.67C536.99 521.79 535.85 508.19 535.83 499.12C535.78 494.16 534.79 489.25 532.91 484.66C532.33 483.11 531.97 481.49 531.84 479.84C531.01 471.51 527.26 461.09 527.26 461.09C527.26 461.09 517.26 431.51 514.76 409.84C513.6 399.53 513.8 389.11 515.34 378.85C515.71 376.24 516.21 373.65 516.84 371.09C516.84 371.09 557.57 345.46 572.95 363.18C574.43 364.91 575.61 366.88 576.42 369.01C577.27 371.11 577.93 373.28 578.39 375.5C583.18 399.01 558.51 408.18 558.51 408.18C558.75 418.86 559.55 440.98 559.72 461.59Z" id="a4KHjfCB7m"></path><path d="M557.26 183.18C545.52 183.18 536.01 192.69 536.01 204.43C536.01 216.16 545.52 225.68 557.26 225.68C568.99 225.68 578.51 216.16 578.51 204.43C578.51 192.69 568.99 183.18 557.26 183.18Z" id="jgFquofKc"></path><path d="M545.59 255.26C545.59 255.26 573.51 264.01 573.51 264.01C574.92 262.3 586.26 248.64 587.67 246.93C587.67 246.93 571.01 246.93 570.17 217.76C569.34 188.6 545.59 217.76 545.59 217.76C545.59 225.26 554.34 242.34 545.59 255.26Z" id="dhEUTc7RR"></path><path d="M578.39 375.5C573.2 376.3 567.08 376.33 563.51 373.18C561.39 371.31 556.16 371.08 549.88 371.68C536.66 372.94 518.76 377.88 515.34 378.85C515.71 376.24 516.21 373.65 516.84 371.09C516.84 371.09 557.57 345.46 572.95 363.18C573.84 363.18 580.95 363.18 581.84 363.18C583.74 364.54 585.32 366.3 586.46 368.34C587.23 371.66 587.67 373.18 587.67 373.18C584.65 374.22 581.55 375 578.39 375.5Z" id="bkYjTG1y3"></path><path d="M567.26 578.17L548.09 572.76C548.75 568.04 549.11 565.42 549.18 564.9C552.47 572.18 558.09 573.17 558.09 573.17C564.15 570.02 567.67 568.71 569.56 568.15C569.92 569.42 570.17 570.26 570.17 570.26C569.79 571.31 568.81 573.95 567.26 578.17Z" id="b1JQh4t4m"></path><path d="M558.09 573.59C558.09 573.59 551.01 572.34 548.09 562.34C548.09 562.34 539.34 577.34 533.51 578.17C527.67 579.01 516.43 579.84 523.93 589.84C531.42 599.84 575.59 595.26 575.59 595.26C575.59 595.26 576.84 571.09 571.42 568.17C568.76 569.26 568.51 568.17 558.09 573.59Z" id="b37UQ4xYRy"></path><path d="M472.57 208.5C472.57 208.5 473.39 192.27 490.44 193.86C492.04 194.01 493.22 195.43 493.07 197.04C493.03 197.42 492.92 197.79 492.74 198.13C492.51 198.57 491.34 200.76 489.25 204.71C480.35 206.73 474.8 207.99 472.57 208.5Z" id="b7YES9Tjr"></path><path d="M545.17 244.43C545.17 244.43 541.01 252.34 533.51 248.18C526.01 244.01 508.51 244.43 508.51 244.43C508.51 244.43 493.93 236.51 491.01 218.59C491.01 218.59 488.09 207.76 488.93 204.85C488.93 204.85 478.09 193.6 472.68 208.6C474.76 219.01 476.43 218.18 476.01 226.51C476.68 228.34 482.01 243.01 482.68 244.84C482.68 244.84 483.09 251.09 495.18 259.43C495.18 259.43 521.01 280.68 521.01 280.68C521.01 280.68 513.72 284.64 516.43 302.76C519.74 324.91 514.76 356.51 514.76 356.51C514.76 358.55 514.76 374.88 514.76 376.93C514.76 376.93 556.42 364.84 563.51 371.09C563.51 371.09 587.67 371.09 587.67 371.09C587.67 371.09 585.59 364.01 582.67 346.93C582.67 346.93 583.09 313.18 583.09 313.18C583.09 313.18 593.92 284.43 598.92 272.76C598.92 272.76 595.17 245.26 586.42 239.43C586.42 239.43 574.42 237.1 574.42 237.1C574.42 237.1 589.76 248.18 571.01 251.93C565.84 250.43 550.59 248.59 545.17 244.43Z" id="a6uq5nvEPI"></path><path d="M534.71 201.78C535.19 202.71 535.86 203.53 536.66 204.21C539.78 207.25 542.52 210.88 543.62 215.1C544.36 217.96 544.32 220.95 544.28 223.91C544.1 235.87 543.59 248.78 536.2 258.2C533.49 261.65 530 264.4 526.72 267.33C526.26 267.67 525.91 268.13 525.72 268.67C525.63 269.23 525.74 269.82 526.03 270.31C527.55 273.48 530.76 275.42 533.8 277.19C535.19 277.99 536.66 278.82 538.26 278.87C542.05 278.99 544.55 274.99 548 273.42C553.02 271.13 558.65 274.32 563.64 276.69C567.24 278.41 571.03 279.73 574.92 280.62C580.26 281.85 586.28 282.16 590.77 279.03C593.37 277.2 595.14 274.42 595.71 271.3C596.07 269.26 596.02 266.9 597.56 265.52C598.35 264.81 599.44 264.52 600.3 263.89C601.63 262.91 602.26 261.27 602.83 259.72C603.34 258.31 607.45 247.09 607.96 245.68C608.62 244.2 608.97 242.59 608.96 240.97C608.72 237.59 605.6 235.14 602.47 233.84C599.34 232.54 595.88 231.9 593.13 229.92C588.48 226.58 587.04 220.34 586.63 214.62C586.34 210.7 586.37 206.76 586.71 202.84C587.22 197.03 588.35 190.84 585.77 185.61C583.01 180.02 576.81 177.17 571.07 174.73C568.87 173.8 566.61 172.85 564.22 172.74C561.69 172.63 559.22 173.47 556.83 174.3C553.03 175.62 549.17 177.33 545.25 178.22C543.04 178.72 540.63 178.35 538.5 179.15C530.69 182.08 534.28 192.94 534.28 199.23C534.27 200.1 534.42 200.96 534.71 201.78Z" id="a1LZ2EgETH"></path><path d="M534.71 200.94C535.19 201.87 535.86 202.7 536.66 203.37C539.78 206.42 542.52 210.04 543.62 214.27C544.36 217.13 544.32 220.12 544.28 223.07C544.1 235.04 543.59 247.95 536.2 257.36C533.49 260.82 530 263.57 526.72 266.5C526.26 266.83 525.91 267.3 525.72 267.83C525.63 268.4 525.74 268.98 526.03 269.48C527.55 272.65 530.76 274.59 533.8 276.35C535.19 277.16 536.66 277.99 538.26 278.04C542.05 278.16 544.55 274.16 548 272.59C553.02 270.29 558.65 273.48 563.64 275.86C567.24 277.57 571.03 278.89 574.92 279.79C580.26 281.02 586.28 281.32 590.77 278.19C593.37 276.37 595.14 273.59 595.71 270.47C596.07 268.43 596.02 266.07 597.56 264.69C598.35 263.98 599.44 263.68 600.3 263.05C601.63 262.08 602.26 260.44 602.83 258.88C603.34 257.48 607.45 246.25 607.96 244.85C608.62 243.37 608.97 241.76 608.96 240.14C608.72 236.76 605.6 234.31 602.47 233.01C599.34 231.71 595.88 231.07 593.13 229.09C588.48 225.75 587.04 219.5 586.63 213.79C586.34 209.87 586.37 205.93 586.71 202.01C587.22 196.19 588.35 190 585.77 184.77C583.01 179.19 576.81 176.33 571.07 173.9C568.87 172.96 566.61 172.02 564.22 171.91C561.69 171.8 559.22 172.64 556.83 173.47C553.03 174.79 549.17 176.49 545.25 177.39C543.04 177.89 540.63 177.52 538.5 178.31C530.69 181.24 534.28 192.11 534.28 198.4C534.27 199.27 534.42 200.13 534.71 200.94Z" id="a18Evi1mUV"></path><path d="M70.26 394.64C70.26 394.64 74.71 385.81 72.31 377.09C69.91 368.38 61.56 363.07 61.56 363.07C61.56 363.07 57.11 371.9 59.51 380.62C61.92 389.34 68.11 391.84 70.26 394.64Z" id="cW7cNvFdY"></path></defs><g><g><g><use xlink:href="#g7CNhUneO" opacity="1" fill="#000000" fill-opacity="1"></use><g><use xlink:href="#g7CNhUneO" opacity="1" fill-opacity="0" stroke="#000000" stroke-width="1" stroke-opacity="0"></use></g></g><g><use xlink:href="#a2OJPMy7Mi" opacity="1" fill="#cbcdda" fill-opacity="1"></use><g><use xlink:href="#a2OJPMy7Mi" opacity="1" fill-opacity="0" stroke="#000000" stroke-width="1" stroke-opacity="0"></use></g></g><g><use xlink:href="#am9tAAped" opacity="1" fill="#000000" fill-opacity="1"></use><g><use xlink:href="#am9tAAped" opacity="1" fill-opacity="0" stroke="#000000" stroke-width="1" stroke-opacity="0"></use></g></g><g><use xlink:href="#bFU2glzZR" opacity="1" fill="#3eaf7c" fill-opacity="0.65"></use><g><use xlink:href="#bFU2glzZR" opacity="1" fill-opacity="0" stroke="#000000" stroke-width="1" stroke-opacity="0"></use></g></g><g><use xlink:href="#a2bSXDmMQu" opacity="1" fill="#3f3d56" fill-opacity="1"></use><g><use xlink:href="#a2bSXDmMQu" opacity="1" fill-opacity="0" stroke="#000000" stroke-width="1" stroke-opacity="0"></use></g></g><g><use xlink:href="#erZr7Wod" opacity="1" fill="#3f3d56" fill-opacity="1"></use><g><use xlink:href="#erZr7Wod" opacity="1" fill-opacity="0" stroke="#000000" stroke-width="1" stroke-opacity="0"></use></g></g><g><use xlink:href="#b26xybaVaF" opacity="1" fill="#000000" fill-opacity="0.26"></use><g><use xlink:href="#b26xybaVaF" opacity="1" fill-opacity="0" stroke="#000000" stroke-width="1" stroke-opacity="0"></use></g></g><g><use xlink:href="#a2ek5f5DCF" opacity="1" fill="#3f3d56" fill-opacity="1"></use><g><use xlink:href="#a2ek5f5DCF" opacity="1" fill-opacity="0" stroke="#000000" stroke-width="1" stroke-opacity="0"></use></g></g><g><use xlink:href="#a2Q3OVCI8Z" opacity="1" fill="#3eaf7c" fill-opacity="1"></use><g><use xlink:href="#a2Q3OVCI8Z" opacity="1" fill-opacity="0" stroke="#000000" stroke-width="1" stroke-opacity="0"></use></g></g><g><use xlink:href="#bqn7Lrtt4" opacity="1" fill="#3f3d56" fill-opacity="1"></use><g><use xlink:href="#bqn7Lrtt4" opacity="1" fill-opacity="0" stroke="#000000" stroke-width="1" stroke-opacity="0"></use></g></g><g><use xlink:href="#a1ItNzFJqJ" opacity="1" fill="#3f3d56" fill-opacity="1"></use><g><use xlink:href="#a1ItNzFJqJ" opacity="1" fill-opacity="0" stroke="#000000" stroke-width="1" stroke-opacity="0"></use></g></g><g><use xlink:href="#j5R09Ur8t2" opacity="1" fill="#3eaf7c" fill-opacity="1"></use><g><use xlink:href="#j5R09Ur8t2" opacity="1" fill-opacity="0" stroke="#000000" stroke-width="1" stroke-opacity="0"></use></g></g><g><use xlink:href="#eGqotKjP0" opacity="1" fill="#3eaf7c" fill-opacity="1"></use><g><use xlink:href="#eGqotKjP0" opacity="1" fill-opacity="0" stroke="#000000" stroke-width="1" stroke-opacity="0"></use></g></g><g><use xlink:href="#a1iZyiRipQ" opacity="1" fill="#3eaf7c" fill-opacity="1"></use><g><use xlink:href="#a1iZyiRipQ" opacity="1" fill-opacity="0" stroke="#000000" stroke-width="1" stroke-opacity="0"></use></g></g><g><use xlink:href="#cS5oRtkFE" opacity="1" fill="#3eaf7c" fill-opacity="1"></use><g><use xlink:href="#cS5oRtkFE" opacity="1" fill-opacity="0" stroke="#000000" stroke-width="1" stroke-opacity="0"></use></g></g><g><use xlink:href="#b5wDzixBM" opacity="1" fill="#ffb9b9" fill-opacity="1"></use><g><use xlink:href="#b5wDzixBM" opacity="1" fill-opacity="0" stroke="#000000" stroke-width="1" stroke-opacity="0"></use></g></g><g><use xlink:href="#c2qyQPLM5d" opacity="1" fill="#000000" fill-opacity="0.25"></use><g><use xlink:href="#c2qyQPLM5d" opacity="1" fill-opacity="0" stroke="#000000" stroke-width="1" stroke-opacity="0"></use></g></g><g><use xlink:href="#b2L81yUEMf" opacity="1" fill="#cbcdda" fill-opacity="1"></use><g><use xlink:href="#b2L81yUEMf" opacity="1" fill-opacity="0" stroke="#000000" stroke-width="1" stroke-opacity="0"></use></g></g><g><use xlink:href="#cBBI6jKSp" opacity="1" fill="#000000" fill-opacity="0.28"></use><g><use xlink:href="#cBBI6jKSp" opacity="1" fill-opacity="0" stroke="#000000" stroke-width="1" stroke-opacity="0"></use></g></g><g><use xlink:href="#a2B9JyoxbN" opacity="1" fill="#ffb9b9" fill-opacity="1"></use><g><use xlink:href="#a2B9JyoxbN" opacity="1" fill-opacity="0" stroke="#000000" stroke-width="1" stroke-opacity="0"></use></g></g><g><use xlink:href="#cciWKqaPA" opacity="1" fill="#4c4c78" fill-opacity="1"></use><g><use xlink:href="#cciWKqaPA" opacity="1" fill-opacity="0" stroke="#000000" stroke-width="1" stroke-opacity="0"></use></g></g><g><use xlink:href="#a3J6tZ0r" opacity="1" fill="#000000" fill-opacity="0.17"></use><g><use xlink:href="#a3J6tZ0r" opacity="1" fill-opacity="0" stroke="#000000" stroke-width="1" stroke-opacity="0"></use></g></g><g><use xlink:href="#a23OmAi1y4" opacity="1" fill="#000000" fill-opacity="1"></use><g><use xlink:href="#a23OmAi1y4" opacity="1" fill-opacity="0" stroke="#000000" stroke-width="1" stroke-opacity="0"></use></g></g><g><use xlink:href="#a4KHjfCB7m" opacity="1" fill="#4c4c78" fill-opacity="1"></use><g><use xlink:href="#a4KHjfCB7m" opacity="1" fill-opacity="0" stroke="#000000" stroke-width="1" stroke-opacity="0"></use></g></g><g><use xlink:href="#jgFquofKc" opacity="1" fill="#ffb9b9" fill-opacity="1"></use><g><use xlink:href="#jgFquofKc" opacity="1" fill-opacity="0" stroke="#000000" stroke-width="1" stroke-opacity="0"></use></g></g><g><use xlink:href="#dhEUTc7RR" opacity="1" fill="#ffb9b9" fill-opacity="1"></use><g><use xlink:href="#dhEUTc7RR" opacity="1" fill-opacity="0" stroke="#000000" stroke-width="1" stroke-opacity="0"></use></g></g><g><use xlink:href="#bkYjTG1y3" opacity="1" fill="#000000" fill-opacity="0.15"></use><g><use xlink:href="#bkYjTG1y3" opacity="1" fill-opacity="0" stroke="#000000" stroke-width="1" stroke-opacity="0"></use></g></g><g><use xlink:href="#b1JQh4t4m" opacity="1" fill="#000000" fill-opacity="1"></use><g><use xlink:href="#b1JQh4t4m" opacity="1" fill-opacity="0" stroke="#000000" stroke-width="1" stroke-opacity="0"></use></g></g><g><use xlink:href="#b37UQ4xYRy" opacity="1" fill="#cbcdda" fill-opacity="1"></use><g><use xlink:href="#b37UQ4xYRy" opacity="1" fill-opacity="0" stroke="#000000" stroke-width="1" stroke-opacity="0"></use></g></g><g><use xlink:href="#b7YES9Tjr" opacity="1" fill="#ffb9b9" fill-opacity="1"></use><g><use xlink:href="#b7YES9Tjr" opacity="1" fill-opacity="0" stroke="#000000" stroke-width="1" stroke-opacity="0"></use></g></g><g><use xlink:href="#a6uq5nvEPI" opacity="1" fill="#cbcdda" fill-opacity="1"></use><g><use xlink:href="#a6uq5nvEPI" opacity="1" fill-opacity="0" stroke="#000000" stroke-width="1" stroke-opacity="0"></use></g></g><g><use xlink:href="#a1LZ2EgETH" opacity="1" fill="#000000" fill-opacity="0.39"></use><g><use xlink:href="#a1LZ2EgETH" opacity="1" fill-opacity="0" stroke="#000000" stroke-width="1" stroke-opacity="0"></use></g></g><g><use xlink:href="#a18Evi1mUV" opacity="1" fill="#b96b6b" fill-opacity="1"></use><g><use xlink:href="#a18Evi1mUV" opacity="1" fill-opacity="0" stroke="#000000" stroke-width="1" stroke-opacity="0"></use></g></g><g><use xlink:href="#cW7cNvFdY" opacity="1" fill="#3eaf7c" fill-opacity="1"></use><g><use xlink:href="#cW7cNvFdY" opacity="1" fill-opacity="0" stroke="#000000" stroke-width="1" stroke-opacity="0"></use></g></g></g></g></svg>